<svg width="469" height="95" viewBox="0 0 469 95" fill="none" xmlns="http://www.w3.org/2000/svg">
<path d="M468.4 0V91.5027H453.035V87.7839H464.583V3.71883H453.035V0H468.4Z" fill="#57592A"/>
<path d="M419.874 74.2786C406.173 74.2786 398.148 64.3944 398.148 47.6597C398.148 31.61 405.39 22.1172 417.721 22.1172C429.465 22.1172 436.511 31.61 436.511 47.7575C436.511 49.3233 436.511 50.3998 436.413 50.6934H405.586C406.075 61.2627 411.36 67.526 419.678 67.526C425.844 67.526 430.052 64.0029 431.716 57.2503L438.077 60.2841C435.826 69.3854 428.78 74.2786 419.874 74.2786ZM405.586 44.2344H428.682C428.193 34.6438 424.572 28.9677 417.721 28.9677C410.088 28.9677 406.369 34.6438 405.586 44.2344Z" fill="#57592A"/>
<path d="M377.676 74.2786C366.813 74.2786 359.082 67.0367 358.984 56.5653L366.226 54.8037C366.226 63.22 371.217 67.526 378.068 67.526C383.646 67.526 387.952 64.8837 387.952 60.2841C387.854 56.8589 385.408 54.4123 379.829 52.2593L373.272 49.8127C365.15 46.7789 361.725 42.6686 361.725 36.1117C361.725 27.8912 368.086 22.1172 376.502 22.1172C385.31 22.1172 392.062 28.1847 392.16 37.2861L384.82 39.0476C384.723 32.0014 381.102 28.9677 376.404 28.9677C372 28.9677 369.064 31.61 368.966 35.5245C368.966 39.0476 371.315 41.4942 376.991 43.843L383.255 46.1917C391.475 49.5191 395.096 53.6294 395.194 59.6969C395.194 68.1132 387.854 74.2786 377.676 74.2786Z" fill="#57592A"/>
<path d="M341.997 22.3125C349.924 22.3125 354.621 27.4014 354.621 36.307V72.9081H347.184V36.6985C347.184 31.6096 344.444 28.7715 339.648 28.7715C332.798 28.7715 328.785 33.1754 328.785 40.8088V72.9081H321.348V23.4869H328.1L328.785 29.7502H328.883C331.232 24.9548 336.223 22.3125 341.997 22.3125Z" fill="#57592A"/>
<path d="M297.964 74.2786C284.263 74.2786 276.238 64.3944 276.238 47.6597C276.238 31.61 283.48 22.1172 295.811 22.1172C307.555 22.1172 314.601 31.61 314.601 47.7575C314.601 49.3233 314.601 50.3998 314.503 50.6934H283.676C284.165 61.2627 289.45 67.526 297.768 67.526C303.934 67.526 308.142 64.0029 309.806 57.2503L316.167 60.2841C313.916 69.3854 306.87 74.2786 297.964 74.2786ZM283.676 44.2344H306.772C306.282 34.6438 302.662 28.9677 295.811 28.9677C288.178 28.9677 284.459 34.6438 283.676 44.2344Z" fill="#57592A"/>
<path d="M251.504 74.6695C236.629 74.6695 227.332 64.9809 227.332 50.7907L235.455 49.0291C235.455 60.1856 242.305 67.4275 251.798 67.4275C260.019 67.4275 265.107 62.2407 265.107 55.4881C265.107 50.0078 261.976 46.2889 254.636 43.2552L244.36 39.3406C234.574 35.5239 230.366 29.9457 230.366 20.7465C230.366 10.4708 237.021 2.15234 249.547 2.15234C262.074 2.15234 269.511 10.6665 269.511 23.0952L261.682 24.8568C261.682 15.4618 256.789 9.39427 249.547 9.39427C242.697 9.39427 238.489 14.2875 238.489 20.5507C238.489 26.2269 241.424 29.75 248.275 32.3923L258.355 36.3068C268.728 40.3192 273.328 45.7996 273.328 55.2924C273.328 66.0574 265.597 74.6695 251.504 74.6695Z" fill="#57592A"/>
<path d="M214.002 22.1172C221.048 22.1172 225.354 27.7933 225.354 38.1669L218.798 40.222C218.798 32.5886 216.351 28.6741 212.241 28.6741C207.054 28.6741 203.824 35.8181 203.824 47.5618V72.9085H196.387V23.4873H202.356L203.139 31.2185H203.237C204.999 25.4446 209.011 22.1172 214.002 22.1172Z" fill="#57592A"/>
<path d="M173.003 74.2786C159.302 74.2786 151.277 64.3944 151.277 47.6597C151.277 31.61 158.519 22.1172 170.85 22.1172C182.594 22.1172 189.64 31.61 189.64 47.7575C189.64 49.3233 189.64 50.3998 189.542 50.6934H158.715C159.204 61.2627 164.489 67.526 172.807 67.526C178.973 67.526 183.181 64.0029 184.845 57.2503L191.206 60.2841C188.955 69.3854 181.909 74.2786 173.003 74.2786ZM158.715 44.2344H181.811C181.322 34.6438 177.701 28.9677 170.85 28.9677C163.217 28.9677 159.498 34.6438 158.715 44.2344Z" fill="#57592A"/>
<path d="M125.67 94.8291C116.862 94.8291 109.621 90.2295 106.195 82.4982L112.361 77.8008C114.807 84.2598 119.603 88.0765 125.768 88.0765C133.206 88.0765 138.001 82.4982 138.001 73.0054V68.8952H137.903C135.652 73.4948 131.248 76.2349 126.257 76.2349C117.352 76.2349 112.067 70.2652 112.067 59.9895V23.4863H119.505V59.9895C119.505 65.8614 122.636 69.4823 127.921 69.4823C134.184 69.4823 137.903 65.4699 137.903 58.7173V23.4863H145.341L145.439 73.0054C145.439 86.7064 138.001 94.8291 125.67 94.8291Z" fill="#57592A"/>
<path d="M81.1559 73.8872C72.7396 73.8872 66.5742 68.6025 66.5742 60.0884C66.5742 51.8678 72.2503 45.5067 84.679 43.9408L91.3338 43.0601C93.5846 42.8643 95.2483 41.2006 95.2483 38.3626C95.2483 32.4908 91.1381 28.9677 85.5598 28.9677C78.8072 28.9677 74.5012 34.2523 74.4033 41.0049L67.8464 38.2647C68.0422 29.0655 75.2841 22.1172 85.7555 22.1172C96.227 22.1172 102.392 28.9677 102.392 39.2434V63.8072C102.392 65.9602 103.273 67.0367 104.741 67.0367C106.013 67.0367 107.188 66.4495 108.851 64.5901L111.983 69.7769C109.732 72.7128 106.307 73.8872 103.273 73.8872C98.6736 73.8872 95.9334 71.0491 95.1505 67.1346L94.8569 66.0581H94.759C91.921 71.147 87.1256 73.8872 81.1559 73.8872ZM83.0153 67.1346C89.9637 67.1346 94.8569 61.067 94.8569 52.3571V49.1276L85.9513 50.2041C77.9264 51.3785 74.0119 54.9016 74.0119 59.599C74.0119 64.2965 77.8286 67.1346 83.0153 67.1346Z" fill="#57592A"/>
<path d="M65.6374 72.9081H34.0273V3.91406H42.15V65.6661H65.6374V72.9081Z" fill="#57592A"/>
<path d="M15.3646 91.5027H0V0H15.3646V3.71883H3.81669V87.7839H15.3646V91.5027Z" fill="#57592A"/>
</svg>
